<svg width="180" height="180" viewBox="0 0 180 180" fill="none" xmlns="http://www.w3.org/2000/svg">
<path d="M132.448 89.3904L87.7243 44.667C81.2808 38.2235 70.8339 38.2235 64.3904 44.667L19.667 89.3904C13.2235 95.8339 13.2235 106.281 19.667 112.724L64.3904 157.448C70.8339 163.891 81.2808 163.891 87.7243 157.448L132.448 112.724C138.891 106.281 138.891 95.8339 132.448 89.3904Z" fill="black" fill-opacity="0.01" stroke="#AEA3FF" stroke-width="3"/>
<g filter="url(#filter1_d_1_304)">
<path d="M74.8375 147.365L30.2898 102.818L77.8312 55.2762M51.503 124.031L70.3339 105.2" stroke="#2A3650" stroke-width="11.25" stroke-linecap="square" shape-rendering="crispEdges"/>
</g>
<g filter="url(#filter2_d_1_304)">
<path d="M122.375 99.8171L91.3569 68.7991L72.265 87.891L103.283 118.909L84.3312 137.861" stroke="#2A3650" stroke-width="11.25" stroke-linecap="square"/>
</g>
<path d="M77.5 111.823C77.5463 111.823 77.5807 111.839 77.5986 111.854C77.6094 111.863 77.6315 111.884 77.6367 111.949C77.7348 113.171 79.429 113.394 79.8398 112.239C79.8617 112.178 79.8885 112.163 79.9014 112.157C79.9226 112.147 79.9601 112.141 80.0049 112.153C80.0494 112.165 80.0784 112.189 80.0918 112.208C80.0999 112.22 80.1152 112.245 80.1035 112.31C79.8821 113.515 81.4616 114.169 82.1572 113.16C82.1944 113.106 82.2245 113.099 82.2383 113.097C82.2613 113.093 82.2981 113.097 82.3379 113.12C82.378 113.143 82.4001 113.173 82.4082 113.195C82.413 113.208 82.4217 113.238 82.3936 113.297C81.8677 114.404 83.2242 115.445 84.1572 114.65C84.2068 114.608 84.2369 114.608 84.251 114.609C84.2743 114.611 84.31 114.624 84.3428 114.657C84.3756 114.69 84.3885 114.726 84.3906 114.749C84.3919 114.763 84.3918 114.793 84.3496 114.843C83.5552 115.776 84.5963 117.132 85.7031 116.606C85.7623 116.578 85.7915 116.587 85.8047 116.592C85.8266 116.6 85.8567 116.622 85.8799 116.662C85.9028 116.702 85.9072 116.739 85.9033 116.762C85.9009 116.776 85.8936 116.806 85.8398 116.843C84.831 117.538 85.4852 119.118 86.6904 118.896C86.7546 118.885 86.7805 118.9 86.792 118.908C86.811 118.922 86.8346 118.951 86.8467 118.995C86.8587 119.04 86.8526 119.077 86.8428 119.099C86.8368 119.111 86.8222 119.138 86.7607 119.16C85.6063 119.571 85.8293 121.265 87.0508 121.363C87.1162 121.369 87.1375 121.391 87.1465 121.401C87.1614 121.419 87.1768 121.454 87.1768 121.5C87.1768 121.546 87.1614 121.581 87.1465 121.599C87.1375 121.609 87.1162 121.631 87.0508 121.637C85.8293 121.735 85.6063 123.429 86.7607 123.84C86.8222 123.862 86.8368 123.889 86.8428 123.901C86.8526 123.923 86.8587 123.96 86.8467 124.005C86.8346 124.049 86.811 124.078 86.792 124.092C86.7805 124.1 86.7546 124.115 86.6904 124.104C85.4852 123.882 84.831 125.462 85.8398 126.157C85.8936 126.194 85.9009 126.224 85.9033 126.238C85.9072 126.261 85.9028 126.298 85.8799 126.338C85.8567 126.378 85.8266 126.4 85.8047 126.408C85.7915 126.413 85.7623 126.422 85.7031 126.394C84.5963 125.868 83.5552 127.224 84.3496 128.157C84.3918 128.207 84.3919 128.237 84.3906 128.251C84.3885 128.274 84.3756 128.31 84.3428 128.343C84.31 128.376 84.2743 128.389 84.251 128.391C84.2369 128.392 84.2068 128.392 84.1572 128.35C83.2242 127.555 81.8677 128.596 82.3936 129.703C82.4217 129.762 82.413 129.792 82.4082 129.805C82.4001 129.827 82.378 129.857 82.3379 129.88C82.2981 129.903 82.2613 129.907 82.2383 129.903C82.2245 129.901 82.1944 129.894 82.1572 129.84C81.4616 128.831 79.8821 129.485 80.1035 130.69C80.1152 130.755 80.0999 130.781 80.0918 130.792C80.0784 130.811 80.0494 130.835 80.0049 130.847C79.9601 130.859 79.9226 130.853 79.9014 130.843C79.8885 130.837 79.8617 130.822 79.8398 130.761C79.429 129.606 77.7348 129.829 77.6367 131.051C77.6315 131.116 77.6094 131.137 77.5986 131.146C77.5807 131.161 77.5463 131.177 77.5 131.177C77.4537 131.177 77.4193 131.161 77.4014 131.146C77.3906 131.137 77.3685 131.116 77.3633 131.051C77.2652 129.829 75.571 129.606 75.1602 130.761C75.1383 130.822 75.1115 130.837 75.0986 130.843C75.0774 130.853 75.0399 130.859 74.9951 130.847C74.9506 130.835 74.9216 130.811 74.9082 130.792C74.9001 130.781 74.8848 130.755 74.8965 130.69C75.1179 129.485 73.5384 128.831 72.8428 129.84C72.8056 129.894 72.7755 129.901 72.7617 129.903C72.7387 129.907 72.7019 129.903 72.6621 129.88C72.622 129.857 72.5999 129.827 72.5918 129.805C72.587 129.792 72.5783 129.762 72.6064 129.703C73.1323 128.596 71.7758 127.555 70.8428 128.35C70.7932 128.392 70.7631 128.392 70.749 128.391C70.7257 128.389 70.69 128.376 70.6572 128.343C70.6244 128.31 70.6115 128.274 70.6094 128.251C70.6081 128.237 70.6082 128.207 70.6504 128.157C71.4448 127.224 70.4037 125.868 69.2969 126.394C69.2377 126.422 69.2085 126.413 69.1953 126.408C69.1734 126.4 69.1433 126.378 69.1201 126.338C69.0972 126.298 69.0928 126.261 69.0967 126.238C69.0991 126.224 69.1064 126.194 69.1602 126.157C70.169 125.462 69.5148 123.882 68.3096 124.104C68.2454 124.115 68.2195 124.1 68.208 124.092C68.189 124.078 68.1654 124.049 68.1533 124.005C68.1413 123.96 68.1474 123.923 68.1572 123.901C68.1632 123.889 68.1778 123.862 68.2393 123.84C69.3937 123.429 69.1707 121.735 67.9492 121.637C67.8838 121.631 67.8625 121.609 67.8535 121.599C67.8386 121.581 67.8232 121.546 67.8232 121.5C67.8232 121.454 67.8386 121.419 67.8535 121.401C67.8625 121.391 67.8838 121.369 67.9492 121.363C69.1707 121.265 69.3937 119.571 68.2393 119.16C68.1778 119.138 68.1632 119.111 68.1572 119.099C68.1474 119.077 68.1413 119.04 68.1533 118.995C68.1654 118.951 68.189 118.922 68.208 118.908C68.2195 118.9 68.2454 118.885 68.3096 118.896C69.5148 119.118 70.169 117.538 69.1602 116.843C69.1064 116.806 69.0991 116.776 69.0967 116.762C69.0928 116.739 69.0972 116.702 69.1201 116.662C69.1433 116.622 69.1734 116.6 69.1953 116.592C69.2085 116.587 69.2377 116.578 69.2969 116.606C70.4037 117.132 71.4448 115.776 70.6504 114.843C70.6082 114.793 70.6081 114.763 70.6094 114.749C70.6115 114.726 70.6244 114.69 70.6572 114.657C70.69 114.624 70.7257 114.611 70.749 114.609C70.7631 114.608 70.7932 114.608 70.8428 114.65C71.7758 115.445 73.1323 114.404 72.6064 113.297C72.5783 113.238 72.587 113.208 72.5918 113.195C72.5999 113.173 72.622 113.143 72.6621 113.12C72.7019 113.097 72.7387 113.093 72.7617 113.097C72.7755 113.099 72.8056 113.106 72.8428 113.16C73.5384 114.169 75.1179 113.515 74.8965 112.31C74.8848 112.245 74.9001 112.22 74.9082 112.208C74.9216 112.189 74.9506 112.165 74.9951 112.153C75.0399 112.141 75.0774 112.147 75.0986 112.157C75.1115 112.163 75.1383 112.178 75.1602 112.239C75.571 113.394 77.2652 113.171 77.3633 111.949C77.3685 111.884 77.3906 111.863 77.4014 111.854C77.4193 111.839 77.4537 111.823 77.5 111.823Z" fill="#8BC53F" stroke="#8BC53F"/>
<defs>
<filter id="filter1_d_1_304" x="18.3348" y="47.3213" width="71.4513" height="115.999" filterUnits="userSpaceOnUse" color-interpolation-filters="sRGB">
<feFlood flood-opacity="0" result="BackgroundImageFix"/>
<feColorMatrix in="SourceAlpha" type="matrix" values="0 0 0 0 0 0 0 0 0 0 0 0 0 0 0 0 0 0 127 0" result="hardAlpha"/>
<feOffset dy="4"/>
<feGaussianBlur stdDeviation="2"/>
<feComposite in2="hardAlpha" operator="out"/>
<feColorMatrix type="matrix" values="0 0 0 0 0 0 0 0 0 0 0 0 0 0 0 0 0 0 0.25 0"/>
<feBlend mode="normal" in2="BackgroundImageFix" result="effect1_dropShadow_1_304"/>
<feBlend mode="normal" in="SourceGraphic" in2="effect1_dropShadow_1_304" result="shape"/>
</filter>
<filter id="filter2_d_1_304" x="60.3101" y="60.8442" width="74.0198" height="92.9716" filterUnits="userSpaceOnUse" color-interpolation-filters="sRGB">
<feFlood flood-opacity="0" result="BackgroundImageFix"/>
<feColorMatrix in="SourceAlpha" type="matrix" values="0 0 0 0 0 0 0 0 0 0 0 0 0 0 0 0 0 0 127 0" result="hardAlpha"/>
<feOffset dy="4"/>
<feGaussianBlur stdDeviation="2"/>
<feComposite in2="hardAlpha" operator="out"/>
<feColorMatrix type="matrix" values="0 0 0 0 0 0 0 0 0 0 0 0 0 0 0 0 0 0 0.25 0"/>
<feBlend mode="normal" in2="BackgroundImageFix" result="effect1_dropShadow_1_304"/>
<feBlend mode="normal" in="SourceGraphic" in2="effect1_dropShadow_1_304" result="shape"/>
</filter>
</defs>
</svg>
