<svg width="137" height="137" viewBox="0 0 137 137" fill="none" xmlns="http://www.w3.org/2000/svg">
<path d="M124.448 56.3904L79.7243 11.667C73.2808 5.22348 62.8339 5.22348 56.3904 11.667L11.667 56.3904C5.22348 62.8339 5.22348 73.2808 11.667 79.7243L56.3904 124.448C62.8339 130.891 73.2808 130.891 79.7243 124.448L124.448 79.7243C130.891 73.2808 130.891 62.8339 124.448 56.3904Z" fill="white"/>
<path d="M124.448 56.3904L79.7243 11.667C73.2808 5.22348 62.8339 5.22348 56.3904 11.667L11.667 56.3904C5.22348 62.8339 5.22348 73.2808 11.667 79.7243L56.3904 124.448C62.8339 130.891 73.2808 130.891 79.7243 124.448L124.448 79.7243C130.891 73.2808 130.891 62.8339 124.448 56.3904Z" fill="black" fill-opacity="0.01" stroke="#AEA3FF" stroke-width="3"/>
<g filter="url(#filter1_d_2_9)">
<path d="M66.8375 114.365L22.2898 69.8176L69.8312 22.2762M43.503 91.0308L62.3339 72.2" stroke="#2A3650" stroke-width="11.25" stroke-linecap="square" shape-rendering="crispEdges"/>
</g>
<g filter="url(#filter2_d_2_9)">
<path d="M114.375 66.8171L83.3569 35.7991L64.265 54.891L95.283 85.909L76.3312 104.861" stroke="#2A3650" stroke-width="11.25" stroke-linecap="square"/>
</g>
<path d="M69.5 78.8232C69.5463 78.8232 69.5807 78.8386 69.5986 78.8535C69.6094 78.8625 69.6315 78.8838 69.6367 78.9492C69.7348 80.1707 71.429 80.3937 71.8398 79.2393C71.8617 79.1778 71.8885 79.1632 71.9014 79.1572C71.9226 79.1474 71.9601 79.1413 72.0049 79.1533C72.0494 79.1654 72.0784 79.189 72.0918 79.208C72.0999 79.2195 72.1152 79.2454 72.1035 79.3096C71.882 80.5148 73.4616 81.169 74.1572 80.1602C74.1944 80.1064 74.2244 80.0991 74.2383 80.0967C74.2613 80.0928 74.2981 80.0972 74.3379 80.1201C74.378 80.1433 74.4001 80.1734 74.4082 80.1953C74.413 80.2085 74.4216 80.2377 74.3935 80.2969C73.8677 81.4037 75.2242 82.4448 76.1572 81.6504C76.2068 81.6082 76.2368 81.6081 76.251 81.6094C76.2742 81.6115 76.31 81.6244 76.3428 81.6572C76.3755 81.69 76.3885 81.7257 76.3906 81.749C76.3919 81.7631 76.3918 81.7932 76.3496 81.8428C75.5552 82.7758 76.5963 84.1323 77.7031 83.6064C77.7623 83.5783 77.7915 83.587 77.8047 83.5918C77.8266 83.5999 77.8567 83.622 77.8799 83.6621C77.9028 83.7019 77.9072 83.7387 77.9033 83.7617C77.9009 83.7755 77.8936 83.8056 77.8398 83.8428C76.831 84.5384 77.4852 86.1179 78.6904 85.8965C78.7546 85.8848 78.7805 85.9001 78.792 85.9082C78.811 85.9216 78.8346 85.9506 78.8467 85.9951C78.8587 86.0399 78.8526 86.0774 78.8428 86.0986C78.8368 86.1115 78.8222 86.1383 78.7607 86.1602C77.6063 86.571 77.8293 88.2652 79.0508 88.3633C79.1162 88.3685 79.1375 88.3906 79.1465 88.4014C79.1614 88.4193 79.1767 88.4537 79.1767 88.5C79.1767 88.5463 79.1614 88.5807 79.1465 88.5986C79.1375 88.6094 79.1162 88.6315 79.0508 88.6367C77.8293 88.7348 77.6063 90.429 78.7607 90.8398C78.8222 90.8617 78.8368 90.8885 78.8428 90.9014C78.8526 90.9226 78.8587 90.9601 78.8467 91.0049C78.8346 91.0494 78.811 91.0784 78.792 91.0918C78.7805 91.0999 78.7546 91.1152 78.6904 91.1035C77.4852 90.8821 76.831 92.4616 77.8398 93.1572C77.8936 93.1944 77.9009 93.2245 77.9033 93.2383C77.9072 93.2613 77.9028 93.2981 77.8799 93.3379C77.8567 93.378 77.8266 93.4001 77.8047 93.4082C77.7915 93.413 77.7623 93.4217 77.7031 93.3936C76.5963 92.8677 75.5552 94.2242 76.3496 95.1572C76.3918 95.2068 76.3919 95.2369 76.3906 95.251C76.3885 95.2743 76.3755 95.31 76.3428 95.3428C76.31 95.3756 76.2742 95.3885 76.251 95.3906C76.2368 95.3919 76.2068 95.3918 76.1572 95.3496C75.2242 94.5552 73.8677 95.5963 74.3935 96.7031C74.4216 96.7623 74.413 96.7915 74.4082 96.8047C74.4001 96.8266 74.378 96.8567 74.3379 96.8799C74.2981 96.9028 74.2613 96.9072 74.2383 96.9033C74.2245 96.9009 74.1944 96.8936 74.1572 96.8398C73.4616 95.831 71.882 96.4852 72.1035 97.6904C72.1152 97.7546 72.0999 97.7805 72.0918 97.792C72.0784 97.811 72.0494 97.8346 72.0049 97.8467C71.9601 97.8587 71.9226 97.8526 71.9014 97.8428C71.8885 97.8368 71.8617 97.8222 71.8398 97.7607C71.429 96.6063 69.7348 96.8293 69.6367 98.0508C69.6315 98.1162 69.6094 98.1375 69.5986 98.1465C69.5807 98.1614 69.5463 98.1768 69.5 98.1768C69.4537 98.1768 69.4193 98.1614 69.4014 98.1465C69.3906 98.1375 69.3685 98.1162 69.3633 98.0508C69.2652 96.8293 67.571 96.6063 67.1601 97.7607C67.1383 97.8222 67.1114 97.8368 67.0986 97.8428C67.0774 97.8526 67.0399 97.8587 66.9951 97.8467C66.9506 97.8346 66.9216 97.811 66.9082 97.792C66.9001 97.7805 66.8848 97.7546 66.8965 97.6904C67.1179 96.4852 65.5384 95.831 64.8428 96.8398C64.8056 96.8936 64.7755 96.9009 64.7617 96.9033C64.7387 96.9072 64.7019 96.9028 64.6621 96.8799C64.622 96.8567 64.5999 96.8266 64.5918 96.8047C64.5869 96.7915 64.5783 96.7623 64.6064 96.7031C65.1323 95.5963 63.7758 94.5552 62.8428 95.3496C62.7932 95.3918 62.7631 95.3919 62.749 95.3906C62.7257 95.3885 62.69 95.3756 62.6572 95.3428C62.6244 95.31 62.6115 95.2743 62.6094 95.251C62.6081 95.2369 62.6082 95.2068 62.6504 95.1572C63.4448 94.2242 62.4037 92.8677 61.2969 93.3936C61.2377 93.4217 61.2085 93.413 61.1953 93.4082C61.1734 93.4001 61.1432 93.378 61.1201 93.3379C61.0972 93.2981 61.0928 93.2613 61.0967 93.2383C61.0991 93.2245 61.1064 93.1944 61.1601 93.1572C62.169 92.4616 61.5148 90.8821 60.3096 91.1035C60.2454 91.1152 60.2195 91.0999 60.208 91.0918C60.1889 91.0784 60.1653 91.0494 60.1533 91.0049C60.1413 90.9601 60.1474 90.9226 60.1572 90.9014C60.1632 90.8885 60.1778 90.8617 60.2392 90.8398C61.3937 90.429 61.1706 88.7348 59.9492 88.6367C59.8838 88.6315 59.8625 88.6094 59.8535 88.5986C59.8385 88.5807 59.8232 88.5463 59.8232 88.5C59.8232 88.4537 59.8385 88.4193 59.8535 88.4014C59.8625 88.3906 59.8838 88.3685 59.9492 88.3633C61.1706 88.2652 61.3937 86.571 60.2392 86.1602C60.1778 86.1383 60.1632 86.1115 60.1572 86.0986C60.1474 86.0774 60.1413 86.0399 60.1533 85.9951C60.1653 85.9506 60.1889 85.9216 60.208 85.9082C60.2195 85.9001 60.2454 85.8848 60.3096 85.8965C61.5148 86.1179 62.169 84.5384 61.1601 83.8428C61.1064 83.8056 61.0991 83.7755 61.0967 83.7617C61.0928 83.7387 61.0972 83.7019 61.1201 83.6621C61.1432 83.622 61.1734 83.5999 61.1953 83.5918C61.2085 83.587 61.2377 83.5783 61.2969 83.6064C62.4037 84.1323 63.4448 82.7758 62.6504 81.8428C62.6082 81.7932 62.6081 81.7631 62.6094 81.749C62.6115 81.7257 62.6244 81.69 62.6572 81.6572C62.69 81.6244 62.7257 81.6115 62.749 81.6094C62.7631 81.6081 62.7932 81.6082 62.8428 81.6504C63.7758 82.4448 65.1323 81.4037 64.6064 80.2969C64.5783 80.2377 64.5869 80.2085 64.5918 80.1953C64.5999 80.1734 64.622 80.1433 64.6621 80.1201C64.7019 80.0972 64.7387 80.0928 64.7617 80.0967C64.7755 80.0991 64.8056 80.1064 64.8428 80.1602C65.5384 81.169 67.1179 80.5148 66.8965 79.3096C66.8848 79.2454 66.9001 79.2195 66.9082 79.208C66.9216 79.189 66.9506 79.1654 66.9951 79.1533C67.0399 79.1413 67.0774 79.1474 67.0986 79.1572C67.1114 79.1632 67.1383 79.1778 67.1601 79.2393C67.571 80.3937 69.2652 80.1706 69.3633 78.9492C69.3685 78.8838 69.3906 78.8625 69.4014 78.8535C69.4193 78.8386 69.4537 78.8232 69.5 78.8232Z" fill="#8BC53F" stroke="#8BC53F"/>
<defs>
<filter id="filter1_d_2_9" x="10.3348" y="14.3213" width="71.4514" height="115.999" filterUnits="userSpaceOnUse" color-interpolation-filters="sRGB">
<feFlood flood-opacity="0" result="BackgroundImageFix"/>
<feColorMatrix in="SourceAlpha" type="matrix" values="0 0 0 0 0 0 0 0 0 0 0 0 0 0 0 0 0 0 127 0" result="hardAlpha"/>
<feOffset dy="4"/>
<feGaussianBlur stdDeviation="2"/>
<feComposite in2="hardAlpha" operator="out"/>
<feColorMatrix type="matrix" values="0 0 0 0 0 0 0 0 0 0 0 0 0 0 0 0 0 0 0.25 0"/>
<feBlend mode="normal" in2="BackgroundImageFix" result="effect1_dropShadow_2_9"/>
<feBlend mode="normal" in="SourceGraphic" in2="effect1_dropShadow_2_9" result="shape"/>
</filter>
<filter id="filter2_d_2_9" x="52.3101" y="27.8442" width="74.0198" height="92.9714" filterUnits="userSpaceOnUse" color-interpolation-filters="sRGB">
<feFlood flood-opacity="0" result="BackgroundImageFix"/>
<feColorMatrix in="SourceAlpha" type="matrix" values="0 0 0 0 0 0 0 0 0 0 0 0 0 0 0 0 0 0 127 0" result="hardAlpha"/>
<feOffset dy="4"/>
<feGaussianBlur stdDeviation="2"/>
<feComposite in2="hardAlpha" operator="out"/>
<feColorMatrix type="matrix" values="0 0 0 0 0 0 0 0 0 0 0 0 0 0 0 0 0 0 0.25 0"/>
<feBlend mode="normal" in2="BackgroundImageFix" result="effect1_dropShadow_2_9"/>
<feBlend mode="normal" in="SourceGraphic" in2="effect1_dropShadow_2_9" result="shape"/>
</filter>
</defs>
</svg>
